<svg width="118" height="118" viewBox="0 0 118 118" fill="none" xmlns="http://www.w3.org/2000/svg">
<g clip-path="url(#clip0_43_400)">
<path d="M56.9436 64.5237C53.8821 65.4207 50.8206 66.3292 47.7592 67.2147C47.3895 67.3182 47.0198 67.4102 46.6386 67.4562C44.4089 67.6747 42.5836 68.4797 40.7467 69.9287C37.1422 72.7576 35.8252 76.4836 35.1783 80.727C34.5313 84.959 32.2092 88.2479 28.651 90.7089C29.3904 89.6049 30.1875 88.5469 30.8576 87.4084C32.6598 84.384 33.3183 81.049 33.8266 77.5991C34.1154 75.6671 35.1436 73.8386 35.9061 71.9871C36.6917 70.0897 37.5928 68.2382 38.3553 66.3292C39.3141 63.9602 41.2665 62.6953 43.45 61.7753C47.5512 60.0388 51.6986 58.4518 55.823 56.7843C59.0115 55.4848 64.0947 56.0138 65.9085 58.2563C68.2999 61.2118 68.4732 63.1552 65.5041 65.6047C61.9343 68.5372 58.7227 71.9181 55.4417 75.1841C54.3211 76.2996 53.4431 77.6566 52.4496 78.8986C52.5073 79.048 52.5651 79.1975 52.6229 79.3585C53.5355 79.1975 54.4482 79.071 55.3493 78.8526C57.9487 78.2201 60.0281 78.8411 61.195 80.6465C62.1538 82.1185 61.7264 83.51 60.005 83.7745C58.249 84.0505 56.4352 83.9585 54.6446 84.039C53.0041 84.108 51.3521 84.177 49.7116 84.3035C49.3534 84.3265 48.926 84.4875 48.6834 84.7405C44.2934 88.9954 39.9149 93.2734 35.5595 97.5513C35.3516 97.7583 35.2707 98.0918 35.2245 98.1723C37.7661 98.1723 40.4001 98.5403 42.8724 98.0803C46.523 97.4018 49.9657 97.9308 53.4084 98.8853C56.3313 99.7018 56.4468 99.5983 57.8909 96.8958C59.1039 94.6304 60.5711 92.4914 62.0383 90.3754C64.0254 87.5119 65.2269 84.4875 65.2153 80.9225C65.2153 78.8296 65.481 76.5986 66.2435 74.6666C67.3872 71.7571 69.0624 69.0432 70.5411 66.2602C71.9967 63.5117 73.8567 60.9128 74.8734 58.0263C76.3868 53.7484 79.2172 51.3679 83.4455 50.1604C85.6058 49.5394 87.6969 49.1484 89.8688 49.8499C91.8212 50.4824 93.2537 51.9084 94.0278 53.6794C95.0213 55.9563 95.83 58.3713 96.2459 60.8093C96.7311 63.7417 95.6682 66.4902 93.8891 68.8247C92.2371 70.9982 90.1576 72.8611 88.5518 75.0691C87.2463 76.8631 86.403 78.979 85.2824 80.911C84.7509 81.831 84.1733 82.7625 83.4339 83.51C81.9552 84.9935 80.2685 84.4415 79.7948 82.3945C79.1017 79.393 80.0721 76.6791 81.5508 74.2066C83.2375 71.3891 85.2708 68.7902 87.1077 66.0532C88.7713 63.5692 88.9215 60.8323 88.1705 58.0263C87.951 57.1983 87.385 57.0258 86.4376 57.0833C84.1733 57.2213 82.5906 58.2333 81.5277 60.1423C79.3212 64.1097 75.8322 67.0192 72.9787 70.4462C71.6617 72.0331 70.3447 73.6776 69.3974 75.4946C68.866 76.5181 68.6234 78.1281 69.0624 79.1171C71.0379 83.625 70.3909 87.8684 68.4963 92.1579C67.9417 93.3999 67.5836 94.7569 67.3295 96.0908C67.2024 96.7348 67.5259 97.4593 67.6183 98.0343C70.2061 95.9873 72.5282 94.0209 75.0005 92.2499C76.0864 91.4794 77.415 90.9159 78.7204 90.6169C79.4829 90.4444 80.4071 90.9619 81.262 91.1689C80.9848 92.0659 80.9616 93.2044 80.384 93.8024C77.6229 96.6543 74.677 99.3338 71.8466 102.117C70.6451 103.301 69.2588 103.899 67.676 103.37C65.8045 102.749 64.8456 101.151 64.9034 99.2993C64.9611 97.2408 65.3308 95.1708 65.8392 93.1699C66.4283 90.8699 67.3064 88.6389 68.0919 86.2815C67.7338 86.3045 67.5721 86.27 67.5374 86.3275C65.5157 89.6279 63.4708 92.9169 61.4953 96.2518C60.8022 97.4248 60.3401 98.7473 59.6469 99.9318C59.3119 100.507 58.5032 101.415 58.2144 101.312C56.5854 100.737 55.5457 102.381 54.0901 102.197C52.6229 102.013 51.1326 101.921 49.6769 101.668C45.1367 100.886 40.6312 101.875 36.1025 101.921C34.7739 101.933 33.4685 102.956 32.1168 103.382C31.0193 103.715 29.7947 103.934 29.0322 102.692C28.2351 101.392 28.6163 100.024 29.4481 99.0233C31.0886 97.0568 32.9486 95.2743 34.7393 93.4229C37.1422 90.9389 39.5452 88.4664 41.9366 85.971C42.1792 85.718 42.2947 85.327 42.5258 84.913C41.2088 84.913 40.0189 85.005 38.8636 84.867C38.4708 84.821 37.974 84.223 37.8701 83.786C37.8123 83.533 38.3668 82.9695 38.7596 82.8085C39.8109 82.36 40.92 81.8195 42.029 81.7505C43.7157 81.6585 44.3511 80.842 44.7901 79.3585C45.7952 75.9316 48.4292 73.6086 50.8206 71.1707C52.9232 69.0317 55.1298 66.9962 57.2902 64.9147C57.1515 64.7997 57.0475 64.6617 56.9436 64.5237Z" fill="white"/>
<path d="M8.78015 86.7184C8.05233 87.0749 7.48625 87.3624 6.49271 87.8569C6.88551 87.1209 7.02414 86.7299 7.26675 86.4424C8.82636 84.614 9.90077 82.7625 9.56574 80.129C9.11518 76.5295 10.825 73.3326 12.1998 70.1241C13.4474 67.2262 14.8684 64.3857 15.9197 61.4072C16.6938 59.2108 16.8902 56.8188 17.5371 54.5648C18.831 50.0569 21.4766 46.3654 24.9308 43.2375C26.5251 41.7885 28.2118 40.4315 29.9332 39.132C32.1051 37.4875 36.0445 38.0625 37.6157 40.3165C38.4937 41.57 38.6208 43.088 37.9276 44.491C37.0034 46.3539 35.7673 48.0674 35.0164 49.9879C33.8495 52.9778 32.9022 56.0598 32.0011 59.1418C30.8112 63.2242 28.2349 66.3292 25.2197 69.1581C22.9207 71.3201 20.5177 73.3671 18.2649 75.5866C17.0981 76.725 16.0121 78.013 15.1804 79.4045C14.6605 80.2785 14.6374 81.463 14.4756 82.521C14.233 84.0965 14.0482 85.6719 13.8056 87.5464C14.4063 86.4999 14.9493 85.6374 15.3999 84.7404C16.9133 81.716 18.0108 78.404 19.9863 75.7131C21.9965 72.9876 24.8153 70.8486 27.3338 68.5027C28.2349 67.6632 29.6443 67.8472 30.0949 69.0431C30.5917 70.3541 30.7881 71.8606 30.7419 73.2751C30.6494 76.2651 30.5686 79.301 30.0025 82.2335C29.5635 84.4529 28.5468 86.6034 27.4724 88.6274C26.3172 90.8009 24.7922 92.7789 23.66 95.0673C24.7113 94.3198 25.7742 93.5723 26.8255 92.8248C26.9526 92.8938 27.0796 92.9743 27.2067 93.0433C25.0348 96.4473 22.9207 99.8858 20.6448 103.221C19.7783 104.486 18.5769 105.636 16.74 104.934C15.3883 104.405 14.6027 102.588 14.8107 100.633C15.1457 97.6548 16.5551 95.1133 18.3342 92.8133C21.3611 88.8919 23.2441 84.6139 23.3712 79.5885C23.4174 77.622 23.972 75.6786 24.3185 73.6086C24.0066 73.8616 23.4868 74.1261 23.1864 74.5286C21.4881 76.8055 19.8476 79.1055 18.1725 81.4055C18.0801 81.5435 17.953 81.647 17.8606 81.7965C14.6605 86.8794 11.3564 91.8934 8.3296 97.0798C6.96638 99.4143 6.15769 102.082 5.1295 104.601C4.7367 105.555 4.08975 106.487 3.09622 105.923C2.35684 105.509 1.58281 104.348 1.59437 103.531C1.67524 99.7248 3.05001 96.3093 5.22192 93.1813C6.43495 91.4334 7.4747 89.5819 8.5722 87.7534C8.72239 87.5119 8.69928 87.1669 8.78015 86.7184ZM18.1956 69.2731C18.3458 69.3766 18.4844 69.4801 18.6346 69.5836C20.3098 67.6172 22.1235 65.7542 23.6023 63.6612C24.5265 62.3617 25.2543 60.7748 25.5316 59.2223C26.3865 54.4958 27.7728 50.0339 30.6725 46.1354C30.9614 45.7444 31.1346 45.2499 31.5737 44.4105C30.8112 44.951 30.4761 45.2269 30.1065 45.4454C26.2247 47.6879 24.0297 51.1839 22.8976 55.3813C21.6961 59.8203 21.1647 64.4777 18.4267 68.3992C18.2649 68.6177 18.2649 68.9741 18.1956 69.2731Z" fill="white"/>
<path d="M61.0792 53.7253C56.7931 53.1848 52.484 52.7363 48.221 52.0578C45.2058 51.5748 42.9645 49.6198 42.4216 46.7334C41.8093 43.5134 43.2302 40.765 46.0953 38.856C47.8629 37.683 49.5958 36.464 51.2132 35.107C53.2118 33.4281 55.5339 33.1061 57.9831 33.1061C60.9752 33.1061 64.0944 32.5656 66.9249 33.2441C70.1943 34.026 73.5677 35.268 75.8204 38.1315C77.4494 40.19 76.6869 42.4439 75.5663 44.2839C72.5279 49.3323 67.6989 51.9543 62.1074 53.3458C61.7955 53.4263 61.4489 53.3573 61.1138 53.3573C61.1023 53.4838 61.0907 53.5988 61.0792 53.7253ZM48.7409 40.397C47.8975 41.4549 46.8347 42.3634 46.361 43.5134C45.8643 44.7094 47.3315 46.6759 49.0875 46.8254C53.2811 47.1934 57.5441 47.5844 61.7146 47.2394C65.0649 46.6184 67.7682 45.1004 68.7502 44.3874C70.7604 43.2259 70.564 41.7769 68.5769 40.535C68.0224 40.19 67.4563 39.868 66.8902 39.523C64.649 41.6619 61.8879 42.5474 59.0228 43.2029C55.2797 44.0539 51.8139 43.8009 48.7409 40.397ZM64.0598 38.0165C63.5977 37.7865 63.3782 37.5795 63.1471 37.5565C60.6402 37.384 58.1332 37.1425 55.6263 37.131C54.6905 37.1195 53.697 37.545 52.8305 37.9705C52.3222 38.2235 52.0103 38.879 51.606 39.3505C52.0796 39.6495 52.5186 40.098 53.0385 40.2245C56.9318 41.202 60.5362 40.581 64.0598 38.0165Z" fill="white"/>
<path d="M100.127 76.3801C100.798 76.2306 101.456 76.0351 102.138 75.9546C103.917 75.7476 105.707 75.4026 107.475 75.4716C109.589 75.5521 110.536 77.5185 109.185 79.094C106.297 82.452 103.27 85.6949 100.162 88.8459C98.3945 90.6399 96.3728 92.1579 94.4666 93.8023C94.3511 93.6873 94.2356 93.5838 94.1316 93.4688C95.0558 92.5603 96.0031 91.6749 96.8927 90.7434C99.0184 88.5239 101.225 86.3619 103.177 83.9815C104.09 82.8775 104.494 81.348 105.28 79.6575C102.727 80.1175 100.694 80.382 98.7065 80.865C97.3317 81.1985 96.2342 80.589 95.7143 79.669C95.2291 78.8065 95.0096 77.2425 95.4948 76.5181C96.5577 74.9081 98.0249 73.5166 99.5036 72.2401C101.907 70.1816 104.471 68.2957 106.955 66.3292C107.244 66.0992 107.452 65.7772 107.949 65.2022C105.95 64.9607 104.229 64.6157 102.496 64.5582C100.543 64.5007 98.7758 63.7072 98.1866 62.0857C97.505 60.2113 98.2328 58.5438 99.3996 57.1063C101.329 54.7143 103.293 52.3453 105.338 50.0454C107.348 47.8029 109.485 45.6639 112.385 44.5829C113.066 44.3299 114.106 44.284 114.661 44.6404C115.077 44.9164 115.054 45.9744 115.088 46.6874C115.181 48.5734 113.887 49.8154 112.708 50.9654C111.022 52.6098 110.074 54.5993 109.289 56.7268C109.115 57.1983 108.711 57.5893 108.191 58.3138C108.988 58.3138 109.485 58.2793 109.97 58.3253C111.588 58.4748 113.309 58.3483 114.788 58.8888C116.613 59.5558 116.948 61.2577 115.55 62.5802C112.974 65.0067 110.201 67.2262 107.498 69.5261C104.968 71.6766 102.415 73.8156 99.8733 75.9546C99.9542 76.0926 100.047 76.2421 100.127 76.3801Z" fill="white"/>
<path d="M12.1996 115.618C14.7412 114.824 17.2943 114.031 19.8359 113.226C23.6021 112.03 27.3336 110.742 31.1229 109.638C36.8184 107.97 42.6987 107.568 48.5906 107.28C50.8203 107.165 53.0384 106.51 55.245 106.567C58.214 106.636 61.1831 107.154 64.1521 107.464C64.9724 107.556 65.7926 107.602 66.6128 107.66C68.7732 107.809 69.8707 108.879 69.9054 110.914C69.94 112.605 68.4613 114.077 66.763 114.468C63.8402 115.158 61.1369 113.996 58.3295 113.766C55.4529 113.525 52.5416 113.663 49.6419 113.571C46.4187 113.467 43.1955 113.249 39.9838 113.18C38.2972 113.145 36.5989 113.318 34.9122 113.364C30.1872 113.49 25.4968 113.594 20.8641 114.974C18.1377 115.79 15.134 115.675 12.2573 115.974C12.2458 115.848 12.2227 115.733 12.1996 115.618Z" fill="white"/>
<path d="M80.788 106.889C80.118 104.555 81.2039 102.818 83.8842 102.519C87.4077 102.117 91.9364 103.336 93.7848 107.05C94.8939 109.27 94.2816 112.283 92.4794 114.387C89.0598 118.401 82.8444 118.918 78.4544 116.71C76.0861 115.514 75.4045 113.295 76.5713 110.88C77.7728 108.407 78.6739 107.545 80.788 106.889ZM81.2963 107.614C80.7534 108.419 79.9447 109.27 79.5981 110.27C79.3208 111.052 79.2746 112.513 79.7252 112.835C81.7238 114.284 85.2243 113.755 86.8416 111.949C87.3038 111.432 87.8698 110.535 87.7081 110.029C87.5348 109.477 86.6221 109.017 85.9405 108.798C84.4618 108.315 82.9253 108.016 81.2963 107.614Z" fill="white"/>
<path d="M59.7621 23.5498C60.2473 22.3538 60.6516 21.1118 61.2524 19.9618C62.6849 17.2133 63.3896 14.5569 62.2344 11.3944C60.5708 6.86347 63.3319 1.84954 68.0107 0.182059C69.4433 -0.323934 70.2057 0.239559 69.94 1.68854C69.8129 2.37853 69.709 3.20652 69.27 3.68952C67.306 5.85149 67.1789 8.40445 67.514 11.0609C67.9299 14.3154 66.867 17.0178 64.6373 19.3638C63.1932 20.8818 61.8069 22.4688 60.3975 24.0328L59.7621 23.5498Z" fill="white"/>
<path d="M69.2009 23.4348C70.8067 21.1233 72.5049 18.8808 73.9837 16.4889C75.0928 14.6949 75.913 12.7399 76.8372 10.8424C77.6575 9.14045 78.986 8.42746 80.1875 9.08295C81.5276 9.81894 82.4518 12.7514 81.5854 13.8439C78.5355 17.6963 75.1159 21.1463 70.7374 23.5268C70.541 23.6303 70.3446 23.7338 70.1366 23.7913C69.9865 23.8373 69.8132 23.8028 69.663 23.8028C69.5128 23.6763 69.3511 23.5613 69.2009 23.4348Z" fill="white"/>
<path d="M49.8843 28.5753C50.023 26.2638 49.7804 23.8488 50.3811 21.6639C51.2591 18.5129 51.3053 15.4424 50.9125 12.2685C50.8317 11.6475 51.0281 10.5665 51.3977 10.4055C51.9869 10.1525 52.9343 10.3135 53.5581 10.6355C55.9726 11.9005 56.8968 14.3499 55.834 16.8799C54.8058 19.3294 53.5812 21.6984 52.4375 24.0903C51.7212 25.5853 51.005 27.0803 50.2887 28.5753C50.1616 28.5868 50.023 28.5868 49.8843 28.5753Z" fill="white"/>
</g>
<defs>
<clipPath id="clip0_43_400">
<rect width="118" height="118" fill="white"/>
</clipPath>
</defs>
</svg>
